D:\school\WTK\thesis\model\3dpredictsim\Results\batch_windlass\Pog_s1_tmt_bCst_d05_k800_WL20_ig24_act_TTC_GRF.mot
nRows=30
nColumns=19

name D:\school\WTK\thesis\model\3dpredictsim\Results\batch_windlass\Pog_s1_tmt_bCst_d05_k800_WL20_ig24_act_TTC_GRF.mot
datacolumns 19
datarows 30
range 0.0000000000 0.3602750274
endheader
time 	ground_force_vx	ground_force_vy	ground_force_vz	ground_force_px	ground_force_py	ground_force_pz	1_ground_force_vx	1_ground_force_vy	1_ground_force_vz	1_ground_force_px	1_ground_force_py	1_ground_force_pz	ground_torque_x	ground_torque_y	ground_torque_z	1_ground_torque_x	1_ground_torque_y	1_ground_torque_z
        0.0000000000	      -34.6921324224	       23.2042249719	        4.3399988716	        0.1719975769	        0.0000000000	        0.0611303091	      119.9931702988	      430.3919763240	        0.5516353954	       -0.3719969076	        0.0000000000	       -0.0388466492	        0.0000000000	        0.0000000000	        0.0000000000	        0.0000000000	        0.0000000000	        0.0000000000	
        0.0124232768	      -80.5573668984	       62.3650298744	       11.9676689779	        0.1878826970	        0.0000000000	        0.0596802490	       82.1014274496	      325.9667274570	       -3.6378484035	       -0.3632931411	        0.0000000000	       -0.0356314138	        0.0000000000	        0.0000000000	        0.0000000000	        0.0000000000	        0.0000000000	        0.0000000000	
        0.0248465536	     -170.6345205459	      170.5918270306	       30.2910543112	        0.2011516710	        0.0000000000	        0.0594043092	       48.1156367870	      225.7095533254	      -11.1171456249	       -0.3508307189	        0.0000000000	       -0.0306545053	        0.0000000000	        0.0000000000	        0.0000000000	        0.0000000000	        0.0000000000	        0.0000000000	
        0.0372698304	     -112.3185942446	      494.4605430258	       -5.3164681147	        0.2196745353	        0.0000000000	        0.0612495298	       31.1918220257	      179.6178499953	      -15.9450448728	       -0.3492331172	        0.0000000000	       -0.0300138389	        0.0000000000	        0.0000000000	        0.0000000000	        0.0000000000	        0.0000000000	        0.0000000000	
        0.0496931072	     -136.0279988466	      806.0647642387	      -26.0633057905	        0.2293759306	        0.0000000000	        0.0623132704	       20.5859246273	      123.8372823022	      -12.7228153074	       -0.3492005281	        0.0000000000	       -0.0299634917	        0.0000000000	        0.0000000000	        0.0000000000	        0.0000000000	        0.0000000000	        0.0000000000	
        0.0621163840	     -179.9147808658	      970.8145067571	      -30.1993988755	        0.2403983501	        0.0000000000	        0.0617788152	        0.5398877194	       50.7751780289	       -7.9510462045	       -0.3502414048	        0.0000000000	       -0.0302135252	        0.0000000000	        0.0000000000	        0.0000000000	        0.0000000000	        0.0000000000	        0.0000000000	
        0.0745396608	     -185.7023899534	      992.3563442453	      -25.4968687447	        0.2509412416	        0.0000000000	        0.0604980203	        0.2029124296	       -0.2135529017	        0.0140944857	        0.0000000000	        0.0000000000	        0.0000000000	        0.0000000000	        0.0000000000	        0.0000000000	        0.0000000000	        0.0000000000	        0.0000000000	
        0.0869629377	     -158.5215435070	      897.1788859082	      -21.0690961207	        0.2565277495	        0.0000000000	        0.0595449046	        0.0000670317	       -0.0000608150	        0.0000008672	        0.0000000000	        0.0000000000	        0.0000000000	        0.0000000000	        0.0000000000	        0.0000000000	        0.0000000000	        0.0000000000	        0.0000000000	
        0.0993862145	     -130.1847649204	      795.2184574269	      -18.3463532811	        0.2604880793	        0.0000000000	        0.0589930507	        0.0000020383	       -0.0000016573	        0.0000000182	        0.0000000000	        0.0000000000	        0.0000000000	        0.0000000000	        0.0000000000	        0.0000000000	        0.0000000000	        0.0000000000	        0.0000000000	
        0.1118094913	     -111.5343666833	      731.0796941840	      -16.0397095346	        0.2643452264	        0.0000000000	        0.0586496374	        0.0000004724	       -0.0000003554	        0.0000000099	        0.0000000000	        0.0000000000	        0.0000000000	        0.0000000000	        0.0000000000	        0.0000000000	        0.0000000000	        0.0000000000	        0.0000000000	
        0.1242327681	      -99.5753839015	      699.4431116950	      -17.1554408002	        0.2675361351	        0.0000000000	        0.0583950165	        0.0000011171	       -0.0000008025	        0.0000000446	        0.0000000000	        0.0000000000	        0.0000000000	        0.0000000000	        0.0000000000	        0.0000000000	        0.0000000000	        0.0000000000	        0.0000000000	
        0.1366560449	      -87.3212198541	      682.9399077469	      -19.6656403536	        0.2701332054	        0.0000000000	        0.0582454409	        0.0000040034	       -0.0000026413	        0.0000000751	        0.0000000000	        0.0000000000	        0.0000000000	        0.0000000000	        0.0000000000	        0.0000000000	        0.0000000000	        0.0000000000	        0.0000000000	
        0.1490793217	      -73.5180195125	      663.6135363418	      -21.0849048952	        0.2728017303	        0.0000000000	        0.0581768476	       -0.0000029195	        0.0000017438	        0.0000000401	        0.0000000000	        0.0000000000	        0.0000000000	        0.0000000000	        0.0000000000	        0.0000000000	        0.0000000000	        0.0000000000	        0.0000000000	
        0.1615025985	      -61.4811541180	      642.0372697239	      -21.2148248957	        0.2757810307	        0.0000000000	        0.0581498898	       -0.0002059636	        0.0001131008	        0.0000072392	        0.0000000000	        0.0000000000	        0.0000000000	        0.0000000000	        0.0000000000	        0.0000000000	        0.0000000000	        0.0000000000	        0.0000000000	
        0.1739258753	      -50.8430495885	      623.4435185011	      -21.5227335299	        0.2795103404	        0.0000000000	        0.0580802481	       -0.0001190849	        0.0000611208	        0.0000057721	        0.0000000000	        0.0000000000	        0.0000000000	        0.0000000000	        0.0000000000	        0.0000000000	        0.0000000000	        0.0000000000	        0.0000000000	
        0.1863491521	      -42.8189539087	      609.2871675173	      -21.8616927804	        0.2842340863	        0.0000000000	        0.0578920225	       -0.0000888857	        0.0000432224	        0.0000050271	        0.0000000000	        0.0000000000	        0.0000000000	        0.0000000000	        0.0000000000	        0.0000000000	        0.0000000000	        0.0000000000	        0.0000000000	
        0.1987724289	      -36.6433480961	      599.1407695367	      -22.0444162657	        0.2896765861	        0.0000000000	        0.0575779731	       -0.0000969322	        0.0000451217	        0.0000058940	        0.0000000000	        0.0000000000	        0.0000000000	        0.0000000000	        0.0000000000	        0.0000000000	        0.0000000000	        0.0000000000	        0.0000000000	
        0.2111957057	      -31.5765454466	      591.9251314662	      -21.6815545481	        0.2954902383	        0.0000000000	        0.0571686908	       -0.0001513821	        0.0000679462	        0.0000094375	        0.0000000000	        0.0000000000	        0.0000000000	        0.0000000000	        0.0000000000	        0.0000000000	        0.0000000000	        0.0000000000	        0.0000000000	
        0.2236189825	      -27.7408090598	      587.0646405235	      -21.3413109501	        0.3013540519	        0.0000000000	        0.0566923560	       -0.0003215799	        0.0001398153	        0.0000198164	        0.0000000000	        0.0000000000	        0.0000000000	        0.0000000000	        0.0000000000	        0.0000000000	        0.0000000000	        0.0000000000	        0.0000000000	
        0.2360422594	      -24.9946442592	      584.5014274690	      -21.2141640189	        0.3070997144	        0.0000000000	        0.0561768028	       -0.0008720271	        0.0003685337	        0.0000522611	        0.0000000000	        0.0000000000	        0.0000000000	        0.0000000000	        0.0000000000	        0.0000000000	        0.0000000000	        0.0000000000	        0.0000000000	
        0.2484655362	      -22.4057910965	      582.9150434726	      -21.1991235411	        0.3125855697	        0.0000000000	        0.0556527291	       -0.0028107177	        0.0011583188	        0.0001619642	        0.0000000000	        0.0000000000	        0.0000000000	        0.0000000000	        0.0000000000	        0.0000000000	        0.0000000000	        0.0000000000	        0.0000000000	
        0.2608888130	      -19.7263391132	      581.2768936144	      -21.2556139128	        0.3178332024	        0.0000000000	        0.0551271573	       -0.0098203026	        0.0039587994	        0.0005410333	        0.0000000000	        0.0000000000	        0.0000000000	        0.0000000000	        0.0000000000	        0.0000000000	        0.0000000000	        0.0000000000	        0.0000000000	
        0.2733120898	      -16.9079637283	      579.4383589248	      -21.4752144738	        0.3228630901	        0.0000000000	        0.0546019286	       -0.0336297712	        0.0133033827	        0.0017680593	        0.0000000000	        0.0000000000	        0.0000000000	        0.0000000000	        0.0000000000	        0.0000000000	        0.0000000000	        0.0000000000	        0.0000000000	
        0.2857353666	      -13.9561002863	      577.0975953508	      -21.7391008935	        0.3276780074	        0.0000000000	        0.0540797268	       -0.1028560325	        0.0400609552	        0.0051646025	        0.0000000000	        0.0000000000	        0.0000000000	        0.0000000000	        0.0000000000	        0.0000000000	        0.0000000000	        0.0000000000	        0.0000000000	
        0.2981586434	      -10.9714643651	      574.2659707404	      -21.8590400306	        0.3322707121	        0.0000000000	        0.0535650038	       -0.2628292398	        0.1011459046	        0.0125979480	        0.0000000000	        0.0000000000	        0.0000000000	        0.0000000000	        0.0000000000	        0.0000000000	        0.0000000000	        0.0000000000	        0.0000000000	
        0.3105819202	       -8.1103968028	      570.8635661954	      -21.7661168917	        0.3366214181	        0.0000000000	        0.0530625667	       -0.5430210176	        0.2072029900	        0.0246789309	        0.0000000000	        0.0000000000	        0.0000000000	        0.0000000000	        0.0000000000	        0.0000000000	        0.0000000000	        0.0000000000	        0.0000000000	
        0.3230051970	       -5.5215923723	      566.3340990244	      -21.2457087681	        0.3406975617	        0.0000000000	        0.0525801324	       -0.9047489648	        0.3434235447	        0.0384605527	        0.0000000000	        0.0000000000	        0.0000000000	        0.0000000000	        0.0000000000	        0.0000000000	        0.0000000000	        0.0000000000	        0.0000000000	
        0.3354284738	       -3.1951941152	      559.7244958284	      -20.5885769766	        0.3444452154	        0.0000000000	        0.0521259820	       -1.2443410725	        0.4711080906	        0.0482485173	        0.0000000000	        0.0000000000	        0.0000000000	        0.0000000000	        0.0000000000	        0.0000000000	        0.0000000000	        0.0000000000	        0.0000000000	
        0.3478517506	       -0.6115972820	      552.1314138336	      -19.6275059198	        0.3478887177	        0.0000000000	        0.0517078195	       -1.4716332457	        0.5568049898	        0.0503698534	        0.0000000000	        0.0000000000	        0.0000000000	        0.0000000000	        0.0000000000	        0.0000000000	        0.0000000000	        0.0000000000	        0.0000000000	
        0.3602750274	        2.4418683575	      547.2980418819	      -18.6577674070	        0.3511621647	        0.0000000000	        0.0512854780	       -1.5864508959	        0.6005240189	        0.0456373965	        0.0000000000	        0.0000000000	        0.0000000000	        0.0000000000	        0.0000000000	        0.0000000000	        0.0000000000	        0.0000000000	        0.0000000000	
